<?xml version="1.0" encoding="UTF-8"?>
<!DOCTYPE svg PUBLIC "-//W3C//DTD SVG 1.1//EN" "http://www.w3.org/Graphics/SVG/1.1/DTD/svg11.dtd">
<svg xmlns="http://www.w3.org/2000/svg" version="1.1" width="504px" height="503px" style="shape-rendering:geometricPrecision; text-rendering:geometricPrecision; image-rendering:optimizeQuality; fill-rule:evenodd; clip-rule:evenodd" xmlns:xlink="http://www.w3.org/1999/xlink">
<g><path style="opacity:0.993" fill="#010101" d="M 236.5,7.5 C 332.601,5.46057 407.101,44.1272 460,123.5C 501.479,196.394 506.479,271.727 475,349.5C 436.899,429.492 374.065,476.992 286.5,492C 199.56,502.089 126.393,475.256 67,411.5C 8.05172,338.498 -6.94828,257.164 22,167.5C 56.1438,82.0291 118.31,29.8625 208.5,11C 217.994,9.9286 227.328,8.76193 236.5,7.5 Z"/></g>
<g><path style="opacity:1" fill="#b52222" d="M 316.5,55.5 C 304.593,53.6932 292.593,53.0265 280.5,53.5C 289.983,51.0683 299.649,50.9016 309.5,53C 312.191,53.1558 314.524,53.9891 316.5,55.5 Z"/></g>
<g><path style="opacity:1" fill="#fa3030" d="M 279.5,53.5 C 279.833,53.5 280.167,53.5 280.5,53.5C 292.593,53.0265 304.593,53.6932 316.5,55.5C 333.871,61.3772 344.371,73.3772 348,91.5C 350.541,110.256 347.874,128.256 340,145.5C 321.417,185.75 291.917,214.917 251.5,233C 240.46,237.093 229.127,239.927 217.5,241.5C 210.82,241.388 204.153,241.054 197.5,240.5C 176.641,235.188 164.141,221.854 160,200.5C 159.501,194.509 159.334,188.509 159.5,182.5C 160.167,182.5 160.833,182.5 161.5,182.5C 166.808,207.686 182.475,219.686 208.5,218.5C 214.546,218.303 220.546,217.636 226.5,216.5C 228.588,216.38 229.922,215.38 230.5,213.5C 257.185,203.49 279.185,187.156 296.5,164.5C 297.893,166.705 299.559,168.705 301.5,170.5C 310.37,174.663 314.537,171.997 314,162.5C 312.285,159.603 309.785,158.269 306.5,158.5C 305.671,155.531 305.505,152.531 306,149.5C 308.18,145.14 310.347,140.807 312.5,136.5C 313.15,136.196 313.817,135.863 314.5,135.5C 315.712,131.201 316.712,126.868 317.5,122.5C 318.9,117.638 319.566,112.638 319.5,107.5C 319.666,102.821 319.499,98.1548 319,93.5C 318.79,91.9419 318.29,90.6085 317.5,89.5C 311.784,71.4594 299.45,61.4594 280.5,59.5C 278.628,57.9385 276.295,56.9385 273.5,56.5C 275.594,55.4824 277.594,54.4824 279.5,53.5 Z"/></g>
<g><path style="opacity:1" fill="#d52929" d="M 279.5,53.5 C 277.594,54.4824 275.594,55.4824 273.5,56.5C 276.295,56.9385 278.628,57.9385 280.5,59.5C 271.323,59.2099 262.323,60.0433 253.5,62C 261.889,58.259 270.556,55.4256 279.5,53.5 Z"/></g>
<g><path style="opacity:1" fill="#f02e2e" d="M 227.5,60.5 C 233.523,60.6691 239.523,61.1691 245.5,62C 250.418,63.8063 255.418,65.3063 260.5,66.5C 261.005,70.012 263.005,72.3454 266.5,73.5C 271.008,69.2778 275.174,69.6111 279,74.5C 280.833,83.3333 277.333,86.8333 268.5,85C 265.679,82.8587 264.346,80.0254 264.5,76.5C 256.287,72.8021 247.954,72.6354 239.5,76C 238.601,78.1917 237.601,80.3584 236.5,82.5C 239.5,88.5 242.5,94.5 245.5,100.5C 239.067,103.715 232.401,106.382 225.5,108.5C 222.141,102.275 219.141,95.7748 216.5,89C 216.688,87.1182 217.688,85.9515 219.5,85.5C 224.127,83.9569 228.793,82.6236 233.5,81.5C 234.639,78.5752 235.139,75.5752 235,72.5C 232.249,68.598 229.749,64.598 227.5,60.5 Z"/></g>
<g><path style="opacity:1" fill="#f52f2f" d="M 204.5,88.5 C 200.673,88.7516 197.34,90.0849 194.5,92.5C 191.205,93.8245 189.872,92.4911 190.5,88.5C 190.324,85.2727 189.657,82.2727 188.5,79.5C 187.371,77.3718 187.204,75.0385 188,72.5C 192.03,69.6507 196.364,67.3173 201,65.5C 204.608,71.0532 207.441,77.0532 209.5,83.5C 208.037,85.3927 206.37,87.0594 204.5,88.5 Z"/></g>
<g><path style="opacity:1" fill="#240d07" d="M 270.5,75.5 C 271.833,75.5 273.167,75.5 274.5,75.5C 274.5,77.5 274.5,79.5 274.5,81.5C 269.74,81.7993 268.406,79.7993 270.5,75.5 Z"/></g>
<g><path style="opacity:1" fill="#efefef" d="M 183.5,76.5 C 183.41,79.1522 184.076,81.4855 185.5,83.5C 186.163,86.8206 186.83,90.1539 187.5,93.5C 187.167,94.5 186.833,95.5 186.5,96.5C 181.833,100.167 177.167,103.833 172.5,107.5C 170.627,100.948 170.127,94.2809 171,87.5C 174.742,83.2525 178.908,79.5859 183.5,76.5 Z"/></g>
<g><path style="opacity:1" fill="#707070" d="M 183.5,76.5 C 184.924,78.5145 185.59,80.8478 185.5,83.5C 184.076,81.4855 183.41,79.1522 183.5,76.5 Z"/></g>
<g><path style="opacity:1" fill="#891a1a" d="M 188.5,79.5 C 189.657,82.2727 190.324,85.2727 190.5,88.5C 188.882,85.8291 188.215,82.8291 188.5,79.5 Z"/></g>
<g><path style="opacity:1" fill="#f0f0f0" d="M 204.5,89.5 C 205.038,91.1172 205.371,92.7839 205.5,94.5C 205.5,95.5 205.5,96.5 205.5,97.5C 201.668,97.1184 198.335,95.7851 195.5,93.5C 198.378,91.8946 201.378,90.5612 204.5,89.5 Z"/></g>
<g><path style="opacity:1" fill="#58413c" d="M 204.5,88.5 C 204.5,88.8333 204.5,89.1667 204.5,89.5C 201.378,90.5612 198.378,91.8946 195.5,93.5C 195.167,93.5 194.833,93.5 194.5,93.5C 194.5,93.1667 194.5,92.8333 194.5,92.5C 197.34,90.0849 200.673,88.7516 204.5,88.5 Z"/></g>
<g><path style="opacity:1" fill="#9e9e9e" d="M 194.5,93.5 C 194.833,93.5 195.167,93.5 195.5,93.5C 198.335,95.7851 201.668,97.1184 205.5,97.5C 205.5,96.5 205.5,95.5 205.5,94.5C 206.339,95.6412 207.006,96.9745 207.5,98.5C 203.096,98.6055 198.763,97.6055 194.5,95.5C 193.227,94.7435 193.227,94.0768 194.5,93.5 Z"/></g>
<g><path style="opacity:1" fill="#ef2e2e" d="M 165.5,94.5 C 166.3,99.1702 166.966,104.004 167.5,109C 167.352,110.256 167.018,111.423 166.5,112.5C 162.542,115.285 158.709,118.285 155,121.5C 156.235,111.685 159.735,102.685 165.5,94.5 Z"/></g>
<g><path style="opacity:1" fill="#631414" d="M 317.5,89.5 C 318.29,90.6085 318.79,91.9419 319,93.5C 319.499,98.1548 319.666,102.821 319.5,107.5C 318.318,101.699 317.652,95.6985 317.5,89.5 Z"/></g>
<g><path style="opacity:1" fill="#ec2d2d" d="M 296.5,129.5 C 296.528,132.916 297.528,135.916 299.5,138.5C 301.606,144.855 303.273,151.355 304.5,158C 300.469,161.357 299.469,165.524 301.5,170.5C 299.559,168.705 297.893,166.705 296.5,164.5C 298.479,162.006 299.813,159.173 300.5,156C 297.199,144.431 293.699,132.931 290,121.5C 284.07,119.683 278.07,118.017 272,116.5C 270.029,116.468 268.529,117.302 267.5,119C 256.787,120.42 252.954,115.92 256,105.5C 261.209,101.356 266.209,101.689 271,106.5C 272.009,108.025 272.509,109.692 272.5,111.5C 278.266,112.358 283.933,113.691 289.5,115.5C 293.247,113.118 297.247,111.618 301.5,111C 298.806,116.889 297.139,123.056 296.5,129.5 Z"/></g>
<g><path style="opacity:1" fill="#f22e2e" d="M 186.5,100.5 C 187.5,100.5 188.5,100.5 189.5,100.5C 190.671,106.854 192.005,113.187 193.5,119.5C 193.167,120.5 192.833,121.5 192.5,122.5C 186.715,126.059 180.715,129.059 174.5,131.5C 173.794,124.821 173.294,118.155 173,111.5C 178.023,108.294 182.523,104.627 186.5,100.5 Z"/></g>
<g><path style="opacity:1" fill="#e7e7e7" d="M 233.5,106.5 C 234.833,106.5 236.167,106.5 237.5,106.5C 237.855,109.067 238.521,111.567 239.5,114C 239.167,114.5 238.833,115 238.5,115.5C 234.684,114.091 231.017,112.424 227.5,110.5C 229.397,108.983 231.397,107.65 233.5,106.5 Z"/></g>
<g><path style="opacity:1" fill="#440f0f" d="M 165.5,94.5 C 165.56,93.9569 165.893,93.6236 166.5,93.5C 167.462,98.2901 168.129,103.123 168.5,108C 168.431,109.986 167.765,111.486 166.5,112.5C 167.018,111.423 167.352,110.256 167.5,109C 166.966,104.004 166.3,99.1702 165.5,94.5 Z"/></g>
<g><path style="opacity:1" fill="#d8d8d8" d="M 206.5,106.5 C 208.945,108.672 210.945,111.338 212.5,114.5C 209.202,116.16 205.869,117.827 202.5,119.5C 202.167,119.167 201.833,118.833 201.5,118.5C 203.164,114.522 204.831,110.522 206.5,106.5 Z"/></g>
<g><path style="opacity:1" fill="#f6f6f6" d="M 202.5,132.5 C 201.871,129.603 200.871,126.936 199.5,124.5C 200.122,122.665 201.456,121.498 203.5,121C 208.399,119.551 213.065,117.551 217.5,115C 218.833,114.333 220.167,114.333 221.5,115C 224.121,120.36 226.455,125.86 228.5,131.5C 233.915,133.098 239.415,134.432 245,135.5C 247.765,133.759 250.765,132.426 254,131.5C 262.687,133.204 265.353,138.204 262,146.5C 257.863,149.829 253.363,150.329 248.5,148C 246.798,145.765 245.798,143.265 245.5,140.5C 239.083,139.646 232.749,138.313 226.5,136.5C 220.057,138.888 213.723,141.555 207.5,144.5C 205.444,140.667 203.778,136.667 202.5,132.5 Z"/></g>
<g><path style="opacity:1" fill="#f72f2f" d="M 166.5,115.5 C 167.725,116.152 168.392,117.319 168.5,119C 168.946,122.175 169.446,125.342 170,128.5C 170.814,130.902 170.647,133.235 169.5,135.5C 164.167,138.5 158.833,141.5 153.5,144.5C 152.336,138.528 152.17,132.528 153,126.5C 157.478,122.695 161.978,119.028 166.5,115.5 Z"/></g>
<g><path style="opacity:1" fill="#646464" d="M 199.5,124.5 C 200.871,126.936 201.871,129.603 202.5,132.5C 200.345,130.383 199.345,127.716 199.5,124.5 Z"/></g>
<g><path style="opacity:1" fill="#f32f2f" d="M 193.5,126.5 C 194.5,126.5 195.5,126.5 196.5,126.5C 198.49,132.804 200.49,139.137 202.5,145.5C 202.167,146.167 201.833,146.833 201.5,147.5C 194.877,150.372 188.211,153.039 181.5,155.5C 179.838,149.513 178.172,143.513 176.5,137.5C 176.977,136.522 177.643,135.689 178.5,135C 183.887,132.646 188.887,129.812 193.5,126.5 Z"/></g>
<g><path style="opacity:1" fill="#7e1819" d="M 296.5,129.5 C 298.072,132.215 299.072,135.215 299.5,138.5C 297.528,135.916 296.528,132.916 296.5,129.5 Z"/></g>
<g><path style="opacity:1" fill="#af2222" d="M 317.5,122.5 C 316.712,126.868 315.712,131.201 314.5,135.5C 313.817,135.863 313.15,136.196 312.5,136.5C 313.873,131.644 315.539,126.977 317.5,122.5 Z"/></g>
<g><path style="opacity:1" fill="#181818" d="M 251.5,136.5 C 258.716,135.688 260.716,138.355 257.5,144.5C 252.995,146.676 250.328,145.343 249.5,140.5C 249.752,138.927 250.418,137.594 251.5,136.5 Z"/></g>
<g><path style="opacity:1" fill="#f4f4f4" d="M 170.5,138.5 C 171.497,138.47 172.164,138.97 172.5,140C 173.579,145.566 175.245,150.899 177.5,156C 171.433,160.243 164.766,162.91 157.5,164C 154.361,159.278 153.194,154.111 154,148.5C 159.647,145.267 165.147,141.933 170.5,138.5 Z"/></g>
<g><path style="opacity:1" fill="#f6f6f6" d="M 222.5,146.5 C 228.34,145.579 232.007,147.913 233.5,153.5C 238.745,156.039 243.912,158.706 249,161.5C 254.65,159.171 260.316,156.838 266,154.5C 269.592,161.932 272.425,169.765 274.5,178C 269.865,184.004 264.198,188.338 257.5,191C 254.167,182.667 250.833,174.333 247.5,166C 242.833,163.667 238.167,161.333 233.5,159C 229.861,159.278 226.194,159.278 222.5,159C 218.547,154.835 218.547,150.669 222.5,146.5 Z"/></g>
<g><path style="opacity:1" fill="#1d1d1d" d="M 223.5,150.5 C 227.909,149.899 229.242,151.566 227.5,155.5C 223.317,156.309 221.984,154.642 223.5,150.5 Z"/></g>
<g><path style="opacity:1" fill="#f5f5f5" d="M 201.5,152.5 C 202.978,152.238 204.311,152.571 205.5,153.5C 207.705,158.741 210.038,163.908 212.5,169C 205.875,171.264 199.209,173.43 192.5,175.5C 188.761,171.037 185.761,166.037 183.5,160.5C 189.484,157.624 195.484,154.957 201.5,152.5 Z"/></g>
<g><path style="opacity:1" fill="#f52f2f" d="M 177.5,161.5 C 178.5,161.5 179.5,161.5 180.5,161.5C 182.634,166.76 184.468,172.093 186,177.5C 180.598,179.394 175.098,181.06 169.5,182.5C 164.763,179.408 161.429,175.074 159.5,169.5C 165.484,166.624 171.484,163.957 177.5,161.5 Z"/></g>
<g><path style="opacity:1" fill="#f62f2f" d="M 211.5,174.5 C 213.144,174.286 214.644,174.62 216,175.5C 219.167,181.167 222.333,186.833 225.5,192.5C 218.799,193.381 212.132,194.381 205.5,195.5C 199.803,191.139 196.137,185.472 194.5,178.5C 200.456,177.913 206.122,176.579 211.5,174.5 Z"/></g>
<g><path style="opacity:1" fill="#6b1415" d="M 161.5,182.5 C 160.833,182.5 160.167,182.5 159.5,182.5C 159.71,176.034 160.377,176.034 161.5,182.5 Z"/></g>
<g><path style="opacity:1" fill="#f22e2e" d="M 184.5,181.5 C 186.527,181.338 188.527,181.505 190.5,182C 193.588,186.843 196.921,191.509 200.5,196C 194.55,197.422 188.55,198.089 182.5,198C 177.833,194.667 173.833,190.667 170.5,186C 175.139,184.179 179.805,182.679 184.5,181.5 Z"/></g>
<g><path style="opacity:1" fill="#f4f4f4" d="M 215.5,197.5 C 220.214,197.173 224.88,197.507 229.5,198.5C 231.226,200.228 232.559,202.228 233.5,204.5C 228.138,207.346 222.472,208.846 216.5,209C 213.317,205.985 210.317,202.818 207.5,199.5C 210.306,198.832 212.972,198.166 215.5,197.5 Z"/></g>
<g><path style="opacity:1" fill="#e5e5e5" d="M 188.5,199.5 C 193.511,199.334 198.511,199.501 203.5,200C 206.833,203.333 210.167,206.667 213.5,210C 212.271,210.781 210.938,211.281 209.5,211.5C 201.331,209.082 193.664,205.582 186.5,201C 187.416,200.722 188.082,200.222 188.5,199.5 Z"/></g>
<g><path style="opacity:1" fill="#c22525" d="M 230.5,213.5 C 229.922,215.38 228.588,216.38 226.5,216.5C 220.546,217.636 214.546,218.303 208.5,218.5C 215.816,217.274 223.15,215.607 230.5,213.5 Z"/></g>
<g><path style="opacity:1" fill="#6c1515" d="M 197.5,240.5 C 204.153,241.054 210.82,241.388 217.5,241.5C 215.19,242.164 212.69,242.497 210,242.5C 205.573,242.606 201.406,241.94 197.5,240.5 Z"/></g>
<g><path style="opacity:1" fill="#fbfbfb" d="M 104.5,263.5 C 104.5,277.833 104.5,292.167 104.5,306.5C 113.167,306.5 121.833,306.5 130.5,306.5C 130.5,309.5 130.5,312.5 130.5,315.5C 118.5,315.5 106.5,315.5 94.5,315.5C 94.5,297.833 94.5,280.167 94.5,262.5C 98.0419,262.187 101.375,262.521 104.5,263.5 Z"/></g>
<g><path style="opacity:1" fill="#f7f7f7" d="M 242.5,262.5 C 245.833,262.5 249.167,262.5 252.5,262.5C 252.5,280.167 252.5,297.833 252.5,315.5C 248.833,315.5 245.167,315.5 241.5,315.5C 241.649,314.448 241.483,313.448 241,312.5C 225.465,318.621 217.632,313.121 217.5,296C 217.676,278.861 225.509,273.361 241,279.5C 241.212,273.752 241.712,268.085 242.5,262.5 Z"/></g>
<g><path style="opacity:1" fill="#fafafa" d="M 289.5,293.5 C 289.56,294.043 289.893,294.376 290.5,294.5C 291.499,284.188 291.832,273.855 291.5,263.5C 294.5,263.5 297.5,263.5 300.5,263.5C 300.5,280.833 300.5,298.167 300.5,315.5C 297.482,315.665 294.482,315.498 291.5,315C 285,304.5 278.5,294 272,283.5C 271.5,294.161 271.333,304.828 271.5,315.5C 268.167,315.5 264.833,315.5 261.5,315.5C 261.5,297.833 261.5,280.167 261.5,262.5C 264.898,262.18 268.232,262.513 271.5,263.5C 277.511,273.528 283.511,283.528 289.5,293.5 Z"/></g>
<g><path style="opacity:1" fill="#393939" d="M 104.5,263.5 C 105.496,277.323 105.829,291.323 105.5,305.5C 114.017,305.174 122.35,305.507 130.5,306.5C 121.833,306.5 113.167,306.5 104.5,306.5C 104.5,292.167 104.5,277.833 104.5,263.5 Z"/></g>
<g><path style="opacity:1" fill="#959595" d="M 291.5,263.5 C 291.832,273.855 291.499,284.188 290.5,294.5C 289.893,294.376 289.56,294.043 289.5,293.5C 290.167,283.5 290.833,273.5 291.5,263.5 Z"/></g>
<g><path style="opacity:1" fill="#b7b7b7" d="M 291.5,263.5 C 294.625,262.521 297.958,262.187 301.5,262.5C 301.83,280.341 301.497,298.008 300.5,315.5C 300.5,298.167 300.5,280.833 300.5,263.5C 297.5,263.5 294.5,263.5 291.5,263.5 Z"/></g>
<g><path style="opacity:1" fill="#f6f6f6" d="M 410.5,277.5 C 410.5,279.833 410.5,282.167 410.5,284.5C 407.615,284.194 404.948,284.527 402.5,285.5C 402.334,291.509 402.501,297.509 403,303.5C 403.374,304.416 403.874,305.25 404.5,306C 406.473,306.495 408.473,306.662 410.5,306.5C 410.777,309.448 410.444,312.281 409.5,315C 403.646,316.409 398.479,315.243 394,311.5C 392.559,302.942 392.059,294.276 392.5,285.5C 390.5,285.5 388.5,285.5 386.5,285.5C 386.336,282.813 386.503,280.146 387,277.5C 388.699,276.594 390.533,276.261 392.5,276.5C 392.5,273.167 392.5,269.833 392.5,266.5C 395.833,266.5 399.167,266.5 402.5,266.5C 402.5,269.833 402.5,273.167 402.5,276.5C 405.385,276.194 408.052,276.527 410.5,277.5 Z"/></g>
<g><path style="opacity:1" fill="#f7f7f7" d="M 146.5,276.5 C 163.635,274.635 171.635,282.302 170.5,299.5C 162.5,299.5 154.5,299.5 146.5,299.5C 147.331,305.928 150.998,308.428 157.5,307C 162.127,301.982 165.793,302.648 168.5,309C 164.776,313.857 159.776,316.024 153.5,315.5C 144.133,315.971 138.3,311.638 136,302.5C 133.001,290.959 136.501,282.293 146.5,276.5 Z"/></g>
<g><path style="opacity:1" fill="#f3f3f3" d="M 178.5,315.5 C 178.5,302.833 178.5,290.167 178.5,277.5C 181.5,277.5 184.5,277.5 187.5,277.5C 188.222,277.918 188.722,278.584 189,279.5C 189.903,278.299 191.069,277.465 192.5,277C 201.053,274.862 207.219,277.695 211,285.5C 211.5,295.494 211.666,305.494 211.5,315.5C 207.833,315.5 204.167,315.5 200.5,315.5C 200.666,306.494 200.5,297.494 200,288.5C 196.254,284.607 192.588,284.607 189,288.5C 188.5,297.494 188.334,306.494 188.5,315.5C 185.167,315.5 181.833,315.5 178.5,315.5 Z"/></g>
<g><path style="opacity:1" fill="#f4f4f4" d="M 309.5,300.5 C 309.437,295.797 309.771,291.13 310.5,286.5C 314.97,277.105 322.304,273.938 332.5,277C 341.599,281.695 345.599,289.195 344.5,299.5C 336.5,299.5 328.5,299.5 320.5,299.5C 320.081,302.325 321.081,304.491 323.5,306C 328.494,307.226 332.994,306.393 337,303.5C 343.319,306.058 343.819,309.225 338.5,313C 327.328,319.05 318.161,316.883 311,306.5C 310.187,304.564 309.687,302.564 309.5,300.5 Z"/></g>
<g><path style="opacity:1" fill="#f5f5f5" d="M 358.5,276.5 C 365.549,275.718 372.216,276.885 378.5,280C 381.076,282.651 382.409,285.818 382.5,289.5C 377.779,290.268 373.779,289.101 370.5,286C 366.33,283.467 362.997,284.134 360.5,288C 360.82,289.653 361.82,290.653 363.5,291C 370.661,291.82 376.828,294.654 382,299.5C 383.942,305.89 382.109,310.723 376.5,314C 370.585,315.527 364.585,315.861 358.5,315C 352.856,313.196 350.189,309.362 350.5,303.5C 353.833,303.5 357.167,303.5 360.5,303.5C 361.019,306.775 363.019,308.108 366.5,307.5C 369.271,307.918 371.271,306.918 372.5,304.5C 365.407,302.129 358.741,298.795 352.5,294.5C 350.649,291.375 350.149,288.042 351,284.5C 353.028,281.308 355.528,278.641 358.5,276.5 Z"/></g>
<g><path style="opacity:1" fill="#bababa" d="M 187.5,277.5 C 184.5,277.5 181.5,277.5 178.5,277.5C 178.5,290.167 178.5,302.833 178.5,315.5C 177.505,302.677 177.171,289.677 177.5,276.5C 181.042,276.187 184.375,276.521 187.5,277.5 Z"/></g>
<g><path style="opacity:1" fill="#aeaeae" d="M 410.5,277.5 C 411.473,279.948 411.806,282.615 411.5,285.5C 408.5,285.5 405.5,285.5 402.5,285.5C 404.948,284.527 407.615,284.194 410.5,284.5C 410.5,282.167 410.5,279.833 410.5,277.5 Z"/></g>
<g><path style="opacity:1" fill="#1a1a1a" d="M 149.5,285.5 C 155.406,284.435 158.739,286.769 159.5,292.5C 155.167,292.5 150.833,292.5 146.5,292.5C 146.15,289.547 147.15,287.213 149.5,285.5 Z"/></g>
<g><path style="opacity:1" fill="#0d0d0d" d="M 332.5,289.5 C 330.952,290.794 328.952,291.461 326.5,291.5C 324.048,291.461 322.048,290.794 320.5,289.5C 323.149,285.198 326.816,284.365 331.5,287C 332.252,287.671 332.586,288.504 332.5,289.5 Z"/></g>
<g><path style="opacity:1" fill="#080808" d="M 232.5,285.5 C 236.273,284.822 239.106,286.156 241,289.5C 241.667,293.5 241.667,297.5 241,301.5C 239.494,306.411 236.327,307.744 231.5,305.5C 227.201,298.518 227.535,291.851 232.5,285.5 Z"/></g>
<g><path style="opacity:1" fill="#696969" d="M 320.5,289.5 C 322.048,290.794 324.048,291.461 326.5,291.5C 328.952,291.461 330.952,290.794 332.5,289.5C 333.404,290.209 333.737,291.209 333.5,292.5C 328.833,292.5 324.167,292.5 319.5,292.5C 319.263,291.209 319.596,290.209 320.5,289.5 Z"/></g>
<g><path style="opacity:1" fill="#777777" d="M 310.5,286.5 C 309.771,291.13 309.437,295.797 309.5,300.5C 308.839,298.866 308.506,297.033 308.5,295C 308.36,291.85 309.027,289.017 310.5,286.5 Z"/></g>
<g><path style="opacity:1" fill="#ababab" d="M 120.5,336.5 C 122.857,336.337 125.19,336.503 127.5,337C 125.527,337.495 123.527,337.662 121.5,337.5C 121.5,338.5 121.5,339.5 121.5,340.5C 126.833,340.833 126.833,341.167 121.5,341.5C 121.5,342.833 121.5,344.167 121.5,345.5C 123.527,345.338 125.527,345.505 127.5,346C 125.19,346.497 122.857,346.663 120.5,346.5C 120.5,343.167 120.5,339.833 120.5,336.5 Z"/></g>
<g><path style="opacity:1" fill="#979797" d="M 132.5,336.5 C 135.119,336.232 137.619,336.565 140,337.5C 140.624,339.464 140.124,341.131 138.5,342.5C 139.04,343.748 139.707,344.915 140.5,346C 139.833,346.667 139.167,346.667 138.5,346C 136.343,341.255 134.676,341.422 133.5,346.5C 132.513,343.232 132.18,339.898 132.5,336.5 Z"/></g>
<g><path style="opacity:1" fill="#939393" d="M 159.5,336.5 C 166.065,335.422 168.232,338.089 166,344.5C 163.667,347.167 161.333,347.167 159,344.5C 158.278,341.739 158.445,339.073 159.5,336.5 Z"/></g>
<g><path style="opacity:1" fill="#b0b0b0" d="M 201.5,336.5 C 201.5,339.5 201.5,342.5 201.5,345.5C 203.415,345.216 205.081,345.549 206.5,346.5C 204.5,346.5 202.5,346.5 200.5,346.5C 200.187,342.958 200.521,339.625 201.5,336.5 Z"/></g>
<g><path style="opacity:1" fill="#575757" d="M 201.5,336.5 C 202.473,338.948 202.806,341.615 202.5,344.5C 204.288,344.215 205.955,344.548 207.5,345.5C 207.376,346.107 207.043,346.44 206.5,346.5C 205.081,345.549 203.415,345.216 201.5,345.5C 201.5,342.5 201.5,339.5 201.5,336.5 Z"/></g>
<g><path style="opacity:1" fill="#8c8c8c" d="M 212.5,336.5 C 213.777,337.694 214.444,339.36 214.5,341.5C 214.167,343.167 213.833,344.833 213.5,346.5C 212.513,343.232 212.18,339.898 212.5,336.5 Z"/></g>
<g><path style="opacity:1" fill="#919191" d="M 266.5,336.5 C 268.369,338.635 269.036,341.302 268.5,344.5C 270.288,344.215 271.955,344.548 273.5,345.5C 271.257,346.474 268.924,346.808 266.5,346.5C 266.5,343.167 266.5,339.833 266.5,336.5 Z"/></g>
<g><path style="opacity:1" fill="#858585" d="M 319.5,336.5 C 320.777,337.694 321.444,339.36 321.5,341.5C 321.167,343.167 320.833,344.833 320.5,346.5C 319.513,343.232 319.18,339.898 319.5,336.5 Z"/></g>
<g><path style="opacity:1" fill="#939393" d="M 327.5,336.5 C 330.452,337.359 332.285,339.359 333,342.5C 333.192,340.423 333.692,338.423 334.5,336.5C 335.833,339.833 335.833,343.167 334.5,346.5C 332.768,344.717 331.268,342.717 330,340.5C 329.808,342.577 329.308,344.577 328.5,346.5C 327.513,343.232 327.18,339.898 327.5,336.5 Z"/></g>
<g><path style="opacity:1" fill="#929292" d="M 375.5,336.5 C 376.496,336.414 377.329,336.748 378,337.5C 380.575,344.284 382.075,343.95 382.5,336.5C 383.833,339.833 383.833,343.167 382.5,346.5C 380.541,345.252 379.041,343.585 378,341.5C 377.798,343.256 377.298,344.922 376.5,346.5C 375.513,343.232 375.18,339.898 375.5,336.5 Z"/></g>
<g><path style="opacity:1" fill="#7f7f7f" d="M 389.5,336.5 C 390.777,337.694 391.444,339.36 391.5,341.5C 391.167,343.167 390.833,344.833 390.5,346.5C 389.513,343.232 389.18,339.898 389.5,336.5 Z"/></g>
<g><path style="opacity:1" fill="#aaaaaa" d="M 233.5,336.5 C 235.857,336.337 238.19,336.503 240.5,337C 238.527,337.495 236.527,337.662 234.5,337.5C 234.5,338.5 234.5,339.5 234.5,340.5C 239.833,341.167 239.833,341.833 234.5,342.5C 234.5,343.5 234.5,344.5 234.5,345.5C 236.527,345.338 238.527,345.505 240.5,346C 238.19,346.497 235.857,346.663 233.5,346.5C 233.5,343.167 233.5,339.833 233.5,336.5 Z"/></g>
<g><path style="opacity:1" fill="#919191" d="M 306.5,336.5 C 308.527,336.338 310.527,336.505 312.5,337C 313.833,340 313.833,343 312.5,346C 310.527,346.495 308.527,346.662 306.5,346.5C 306.5,343.167 306.5,339.833 306.5,336.5 Z"/></g>
<g><path style="opacity:1" fill="#9a9a9a" d="M 361.5,336.5 C 363.369,338.635 364.036,341.302 363.5,344.5C 364.833,344.5 366.167,344.5 367.5,344.5C 367.187,341.753 367.52,339.086 368.5,336.5C 369.652,339.106 369.818,341.773 369,344.5C 366.667,347.167 364.333,347.167 362,344.5C 361.503,341.854 361.336,339.187 361.5,336.5 Z"/></g>
<g><path style="opacity:1" fill="#8c8c8c" d="M 423.5,336.5 C 425.833,336.5 428.167,336.5 430.5,336.5C 430.682,338.591 430.348,340.591 429.5,342.5C 430.04,343.748 430.707,344.915 431.5,346C 431,346.167 430.5,346.333 430,346.5C 428.606,345.387 427.439,344.053 426.5,342.5C 425.833,343.833 425.167,345.167 424.5,346.5C 423.513,343.232 423.18,339.898 423.5,336.5 Z"/></g>
<g><path style="opacity:1" fill="#7e7e7e" d="M 46.5,336.5 C 48.0744,336.937 49.2411,337.937 50,339.5C 50.8333,338.5 51.6667,337.5 52.5,336.5C 52.8333,336.833 53.1667,337.167 53.5,337.5C 51.8702,340.276 51.2035,343.276 51.5,346.5C 50.5,346.5 49.5,346.5 48.5,346.5C 48.69,342.968 48.0233,339.635 46.5,336.5 Z"/></g>
<g><path style="opacity:1" fill="#8c8c8c" d="M 72.5,336.5 C 74.369,338.635 75.0356,341.302 74.5,344.5C 75.8333,344.5 77.1667,344.5 78.5,344.5C 78.1866,341.753 78.52,339.086 79.5,336.5C 80.8333,339.5 80.8333,342.5 79.5,345.5C 77.0314,347.007 74.8647,346.673 73,344.5C 72.5026,341.854 72.3359,339.187 72.5,336.5 Z"/></g>
<g><path style="opacity:1" fill="#939393" d="M 86.5,336.5 C 88.8333,336.5 91.1667,336.5 93.5,336.5C 93.0142,339.997 92.6808,343.33 92.5,346.5C 90.6399,341.386 88.9732,341.386 87.5,346.5C 86.513,343.232 86.1796,339.898 86.5,336.5 Z"/></g>
<g><path style="opacity:1" fill="#0c0c0c" d="M 88.5,337.5 C 89.5,337.5 90.5,337.5 91.5,337.5C 91.5,338.5 91.5,339.5 91.5,340.5C 90.5,340.5 89.5,340.5 88.5,340.5C 88.5,339.5 88.5,338.5 88.5,337.5 Z"/></g>
<g><path style="opacity:1" fill="#121212" d="M 134.5,337.5 C 136.346,337.222 137.68,337.889 138.5,339.5C 137.311,340.429 135.978,340.762 134.5,340.5C 134.5,339.5 134.5,338.5 134.5,337.5 Z"/></g>
<g><path style="opacity:1" fill="#131313" d="M 161.5,337.5 C 163.89,337.685 164.89,339.018 164.5,341.5C 163.167,346.833 161.833,346.833 160.5,341.5C 160.623,340.075 160.957,338.742 161.5,337.5 Z"/></g>
<g><path style="opacity:1" fill="#040404" d="M 308.5,337.5 C 309.496,337.414 310.329,337.748 311,338.5C 311.495,340.473 311.662,342.473 311.5,344.5C 310.5,344.5 309.5,344.5 308.5,344.5C 308.5,342.167 308.5,339.833 308.5,337.5 Z"/></g>
<g><path style="opacity:1" fill="#121212" d="M 425.5,337.5 C 426.5,337.5 427.5,337.5 428.5,337.5C 428.5,338.5 428.5,339.5 428.5,340.5C 427.5,340.5 426.5,340.5 425.5,340.5C 425.5,339.5 425.5,338.5 425.5,337.5 Z"/></g>
<g><path style="opacity:1" fill="#8c8c8c" d="M 60.5,336.5 C 62.4672,336.261 64.3005,336.594 66,337.5C 66.7772,340.429 66.6105,343.263 65.5,346C 63.5594,346.743 61.7261,346.576 60,345.5C 59.2642,342.408 59.4309,339.408 60.5,336.5 Z"/></g>
<g><path style="opacity:1" fill="#080808" d="M 61.5,337.5 C 62.5,337.5 63.5,337.5 64.5,337.5C 64.5,339.833 64.5,342.167 64.5,344.5C 63.5,344.5 62.5,344.5 61.5,344.5C 61.5,342.167 61.5,339.833 61.5,337.5 Z"/></g>
<g><path style="opacity:1" fill="#909090" d="M 172.5,336.5 C 173.496,336.414 174.329,336.748 175,337.5C 177.575,344.284 179.075,343.95 179.5,336.5C 180.833,339.833 180.833,343.167 179.5,346.5C 177.541,345.252 176.041,343.585 175,341.5C 174.798,343.256 174.298,344.922 173.5,346.5C 172.513,343.232 172.18,339.898 172.5,336.5 Z"/></g>
<g><path style="opacity:1" fill="#959595" d="M 220.5,337.5 C 222.693,336.203 225.027,336.203 227.5,337.5C 226.167,339.5 224.833,341.5 223.5,343.5C 224.833,344.167 226.167,344.833 227.5,345.5C 225.167,346.833 222.833,346.833 220.5,345.5C 221.971,342.864 223.637,340.364 225.5,338C 223.866,337.506 222.199,337.34 220.5,337.5 Z"/></g>
<g><path style="opacity:1" fill="#919191" d="M 292.5,336.5 C 294.453,337.626 295.953,339.292 297,341.5C 297.202,339.744 297.702,338.078 298.5,336.5C 299.833,339.833 299.833,343.167 298.5,346.5C 296.808,344.641 295.308,342.641 294,340.5C 293.667,342.5 293.333,344.5 293,346.5C 292.502,343.183 292.335,339.85 292.5,336.5 Z"/></g>
<g><path style="opacity:1" fill="#939393" d="M 342.5,336.5 C 344.199,336.34 345.866,336.506 347.5,337C 348.711,337.893 348.711,338.726 347.5,339.5C 346.476,338.147 345.143,337.48 343.5,337.5C 343.5,339.833 343.5,342.167 343.5,344.5C 346.205,344.62 346.872,343.62 345.5,341.5C 346.325,340.614 347.325,340.281 348.5,340.5C 349.493,345.675 347.493,347.509 342.5,346C 341.208,342.835 341.208,339.668 342.5,336.5 Z"/></g>
<g><path style="opacity:1" fill="#929292" d="M 106.5,336.5 C 109.119,336.232 111.619,336.565 114,337.5C 114.342,341.32 112.509,342.986 108.5,342.5C 108.762,343.978 108.429,345.311 107.5,346.5C 106.513,343.232 106.18,339.898 106.5,336.5 Z"/></g>
<g><path style="opacity:1" fill="#101010" d="M 108.5,337.5 C 110.346,337.222 111.68,337.889 112.5,339.5C 111.311,340.429 109.978,340.762 108.5,340.5C 108.5,339.5 108.5,338.5 108.5,337.5 Z"/></g>
<g><path style="opacity:1" fill="#8e8e8e" d="M 146.5,336.5 C 148.792,336.244 150.959,336.577 153,337.5C 153.688,338.332 153.521,338.998 152.5,339.5C 150.907,337.34 149.24,337.173 147.5,339C 149.249,340.292 151.082,341.458 153,342.5C 153.86,345.478 152.693,346.812 149.5,346.5C 147.714,346.304 146.381,345.471 145.5,344C 147.047,343.667 148.38,344.167 149.5,345.5C 150.308,345.192 150.975,344.692 151.5,344C 150.012,342.283 148.179,341.116 146,340.5C 145.421,339.072 145.588,337.738 146.5,336.5 Z"/></g>
<g><path style="opacity:1" fill="#909090" d="M 279.5,336.5 C 281.857,336.337 284.19,336.503 286.5,337C 284.527,337.495 282.527,337.662 280.5,337.5C 280.5,338.5 280.5,339.5 280.5,340.5C 285.11,340.596 285.444,341.596 281.5,343.5C 283.167,344.167 284.833,344.833 286.5,345.5C 284.257,346.474 281.924,346.808 279.5,346.5C 279.5,343.167 279.5,339.833 279.5,336.5 Z"/></g>
<g><path style="opacity:1" fill="#8d8d8d" d="M 410.5,336.5 C 412.857,336.337 415.19,336.503 417.5,337C 415.866,337.494 414.199,337.66 412.5,337.5C 412.5,338.5 412.5,339.5 412.5,340.5C 416.335,341.004 416.335,342.004 412.5,343.5C 414.167,344.167 415.833,344.833 417.5,345.5C 415.257,346.474 412.924,346.808 410.5,346.5C 410.5,343.167 410.5,339.833 410.5,336.5 Z"/></g>
<g><path style="opacity:1" fill="#848484" d="M 449.5,336.5 C 451.857,336.337 454.19,336.503 456.5,337C 454.866,337.494 453.199,337.66 451.5,337.5C 451.5,338.5 451.5,339.5 451.5,340.5C 456.694,340.942 456.694,341.942 451.5,343.5C 453.167,344.167 454.833,344.833 456.5,345.5C 454.257,346.474 451.924,346.808 449.5,346.5C 449.5,343.167 449.5,339.833 449.5,336.5 Z"/></g>
<g><path style="opacity:1" fill="#949494" d="M 397.5,336.5 C 399.247,337.981 400.414,339.981 401,342.5C 401.543,340.369 402.376,338.369 403.5,336.5C 403.833,336.833 404.167,337.167 404.5,337.5C 401.3,349.617 398.967,349.283 397.5,336.5 Z"/></g>
<g><path style="opacity:1" fill="#868686" d="M 188.5,336.5 C 189.822,336.33 190.989,336.663 192,337.5C 193.523,340.491 194.023,343.491 193.5,346.5C 191.167,343.833 188.833,343.833 186.5,346.5C 186.066,343.084 186.733,339.751 188.5,336.5 Z"/></g>
<g><path style="opacity:1" fill="#909090" d="M 437.5,336.5 C 439.467,336.261 441.301,336.594 443,337.5C 443.688,338.332 443.521,338.998 442.5,339.5C 441.377,337.711 440.044,337.378 438.5,338.5C 439.436,339.974 440.77,340.974 442.5,341.5C 443.747,343.006 443.747,344.506 442.5,346C 440.559,346.743 438.726,346.576 437,345.5C 436.312,344.668 436.479,344.002 437.5,343.5C 438.891,344.645 440.224,344.645 441.5,343.5C 440.086,342.376 438.586,341.376 437,340.5C 436.421,339.072 436.588,337.738 437.5,336.5 Z"/></g>
<g><path style="opacity:1" fill="#8c8c8c" d="M 246.5,336.5 C 248.527,336.338 250.527,336.505 252.5,337C 253.833,340 253.833,343 252.5,346C 250.527,346.495 248.527,346.662 246.5,346.5C 246.5,343.167 246.5,339.833 246.5,336.5 Z"/></g>
<g><path style="opacity:1" fill="#070707" d="M 248.5,337.5 C 249.5,337.5 250.5,337.5 251.5,337.5C 251.5,339.833 251.5,342.167 251.5,344.5C 250.5,344.5 249.5,344.5 248.5,344.5C 248.5,342.167 248.5,339.833 248.5,337.5 Z"/></g>
</svg>
